<svg width="173" height="46" viewBox="0 0 173 46" fill="none" xmlns="http://www.w3.org/2000/svg">
<path fill-rule="evenodd" clip-rule="evenodd" d="M14.8791 15.6608L12.4827 30.3416C4.36805 29.0181 -1.13163 21.3725 0.198314 13.2579C1.52184 5.15615 9.16743 -0.343534 17.2692 0.986413C21.2462 1.6289 24.7927 3.86475 27.0992 7.17998L14.8791 15.6608Z" fill="#1A629C"/>
<path fill-rule="evenodd" clip-rule="evenodd" d="M1.26437 21.6356C0.133592 19.0914 -0.28402 16.2002 0.204269 13.2512C0.531937 11.2081 1.27722 9.31916 2.3309 7.66797L14.8851 15.6541L1.26437 21.6356Z" fill="#3194BF"/>
<path fill-rule="evenodd" clip-rule="evenodd" d="M2.32422 7.67418C4.85561 3.71003 9.17313 1.10154 13.9725 0.818848L14.8784 15.6667L2.32422 7.67418Z" fill="#66BCDB"/>
<path fill-rule="evenodd" clip-rule="evenodd" d="M14.8786 15.6606L13.9727 0.812779C15.0585 0.742106 16.1635 0.787081 17.2686 0.979827C21.2456 1.62231 24.7921 3.85817 27.0986 7.1734L14.8786 15.6606Z" fill="#8CD5EA"/>
<path fill-rule="evenodd" clip-rule="evenodd" d="M12.4827 30.3409L14.8791 15.6665C22.9809 16.99 28.4806 24.6356 27.1635 32.7374C25.84 40.852 18.1944 46.3388 10.0798 45.0217C6.10277 44.3792 2.55625 42.1434 0.262573 38.8217L12.4827 30.3409Z" fill="#3194BF"/>
<path fill-rule="evenodd" clip-rule="evenodd" d="M26.0957 24.3535C27.2137 26.9042 27.6313 29.789 27.1558 32.738C26.8153 34.7939 26.0829 36.6828 25.0292 38.3276L12.4814 30.3415L26.0957 24.3535Z" fill="#66BCDB"/>
<path fill-rule="evenodd" clip-rule="evenodd" d="M25.0356 38.3274C22.5042 42.2916 18.1803 44.9 13.3874 45.1827L12.4814 30.3413L25.0356 38.3274Z" fill="#8CD5EA"/>
<path fill-rule="evenodd" clip-rule="evenodd" d="M12.4827 30.3413L13.3886 45.1892C12.3028 45.2598 11.1977 45.202 10.0798 45.0221C6.10277 44.3796 2.55625 42.1438 0.262573 38.8221L12.4827 30.3413Z" fill="#66BCDB"/>
<path d="M73.2853 10.7542V11.3068C73.1183 11.3068 72.9577 11.3325 72.8099 11.3839C72.6621 11.4289 72.5979 11.5509 72.5979 11.7565C72.5979 11.8786 72.7328 12.1741 72.9962 12.6239C73.2661 13.0865 73.5745 13.594 73.9342 14.1851C74.294 14.7634 74.6603 15.3609 75.0393 15.9712C75.4248 16.5816 75.7396 17.0892 75.9773 17.5196L79.1962 12.6175C79.344 12.3669 79.4532 12.1741 79.556 12.0392C79.6459 11.8915 79.6909 11.7565 79.6909 11.6345C79.6909 11.4995 79.601 11.4096 79.4339 11.3646C79.254 11.3325 79.0934 11.3068 78.9456 11.3068V10.7542H83.7579V11.3068C83.6101 11.3068 83.4752 11.3196 83.3402 11.3518C83.2182 11.3839 83.0832 11.4546 82.9419 11.5638C82.807 11.6794 82.6592 11.8336 82.4986 12.0521C82.338 12.2705 82.1581 12.5468 81.9332 12.9194L77.2687 20.263V25.6856C77.2687 26.0583 77.4743 26.2382 77.8984 26.2382V26.7907H73.5487V26.2382C73.7158 26.2382 73.8507 26.1932 73.9535 26.1032C74.0692 26.0133 74.1206 25.8784 74.1206 25.6856V20.263L68.8072 12.0392C68.6851 11.8336 68.4924 11.6537 68.2225 11.5188C68.0876 11.4417 67.9655 11.3839 67.8499 11.3518C67.6379 11.4224 67.4066 11.5574 67.1946 11.7565L60.8661 17.3397L66.642 24.754C66.8797 25.056 67.1624 25.3515 67.4773 25.6471C67.8049 25.9426 68.1197 26.1418 68.4281 26.2446V26.7971H63.3461V26.2446C63.5838 26.2446 63.7059 26.1739 63.7059 26.0326C63.7059 25.9298 63.5709 25.7049 63.3204 25.3644L58.6109 19.3507L56.3044 21.3424V25.6921C56.3044 25.8848 56.3622 26.0197 56.4715 26.1097C56.5743 26.1996 56.7092 26.2446 56.8569 26.2446V26.7971H52.5651V26.2446C52.9699 26.2446 53.1755 26.0647 53.1755 25.6921V11.8529C53.1755 11.4931 52.9699 11.3132 52.5651 11.3132V10.7607H56.8569V11.3132C56.7092 11.3132 56.5743 11.3582 56.4715 11.4481C56.3558 11.5381 56.3044 11.673 56.3044 11.8529V17.6481L61.9968 12.6753C62.2538 12.4376 62.4466 12.232 62.5944 12.0906C62.7421 11.93 62.8192 11.8079 62.8192 11.7051C62.8192 11.5574 62.7743 11.4546 62.6972 11.4032C62.6201 11.3325 62.5173 11.3132 62.4016 11.3132V10.7607H67.5415H68.1711H73.2853V10.7542ZM92.47 24.1694C93.3373 24.1694 94.0826 24.0923 94.7315 23.9317C95.3804 23.771 95.9073 23.4819 96.3249 23.0643C96.7425 22.6467 97.0573 22.0941 97.2758 21.4003C97.4878 20.7128 97.5906 19.8326 97.5906 18.7789C97.5906 17.7188 97.4878 16.845 97.2758 16.1576C97.0637 15.4701 96.7425 14.9176 96.3249 14.4935C95.9073 14.0695 95.374 13.7804 94.7315 13.6262C94.089 13.4591 93.3438 13.3756 92.47 13.3756H88.2103V24.1629H92.47V24.1694ZM93.5751 10.7542C94.5838 10.7542 95.5154 10.9213 96.3892 11.2425C97.2565 11.5702 98.0146 12.0649 98.6571 12.7203C99.2996 13.3884 99.8007 14.2108 100.173 15.2195C100.533 16.2347 100.726 17.4104 100.726 18.7789C100.726 20.1346 100.533 21.3232 100.173 22.3254C99.8007 23.3341 99.306 24.1694 98.6571 24.8311C98.0146 25.4865 97.2565 25.9812 96.3892 26.3024C95.5218 26.6301 94.5838 26.7971 93.5751 26.7971H84.4453V26.2446C84.8629 26.2446 85.075 26.0647 85.075 25.6921V11.8529C85.075 11.4931 84.8629 11.3132 84.4453 11.3132V10.7607H93.5751V10.7542ZM116.017 14.0566C116.017 13.8318 115.94 13.6583 115.779 13.5491C115.619 13.4334 115.349 13.382 114.963 13.382H106.065V17.1663H111.455C111.815 17.1663 112.098 17.1084 112.304 16.9992C112.509 16.8836 112.605 16.6009 112.605 16.1319H113.1V20.8863H112.605C112.605 20.4237 112.503 20.1153 112.304 19.9804C112.098 19.8583 111.815 19.7876 111.455 19.7876H106.065V23.9895H115.253C115.522 23.9895 115.747 23.9188 115.921 23.7775C116.101 23.6425 116.178 23.4498 116.178 23.1992H116.672V27.3818H116.178C116.178 27.0798 116.101 26.9064 115.921 26.8614C115.754 26.8164 115.522 26.8036 115.253 26.8036H102.429V26.251C102.563 26.251 102.679 26.206 102.782 26.1161C102.885 26.0262 102.93 25.8912 102.93 25.6985V11.8593C102.93 11.6794 102.885 11.5445 102.782 11.4546C102.679 11.3646 102.57 11.3196 102.429 11.3196V10.7671H114.97C115.355 10.7671 115.625 10.6964 115.786 10.5744C115.946 10.4394 116.024 10.2595 116.024 10.0347H116.518V14.0695H116.017V14.0566ZM133.833 24.5998C133.775 24.5998 133.718 24.5998 133.673 24.587C133.628 24.5741 133.583 24.5741 133.525 24.5741C133.409 24.5741 133.152 24.6898 132.747 24.9339C132.33 25.1845 131.809 25.4543 131.18 25.7563C130.55 26.0583 129.824 26.3217 129.021 26.5466C128.218 26.7714 127.37 26.8871 126.49 26.8871C125.34 26.8871 124.228 26.72 123.168 26.3988C122.095 26.0711 121.157 25.5636 120.341 24.8825C119.525 24.2015 118.883 23.3598 118.401 22.3383C117.925 21.3231 117.688 20.1217 117.688 18.7661C117.688 17.4233 117.925 16.2347 118.401 15.2067C118.889 14.1916 119.532 13.3306 120.341 12.6303C121.157 11.9428 122.095 11.4224 123.168 11.0819C124.228 10.7286 125.34 10.5615 126.49 10.5615C127.428 10.5615 128.276 10.6386 129.034 10.8121C129.792 10.9727 130.46 11.1397 131.032 11.3196C131.597 11.5124 132.047 11.6794 132.375 11.8401C132.702 12.0071 132.908 12.0906 132.972 12.0906C133.075 12.0906 133.139 12.0328 133.21 11.93C133.281 11.8272 133.326 11.7501 133.358 11.6923L133.775 12.0521L131.63 15.7464L131.36 15.5343C131.36 15.4637 131.347 15.4123 131.347 15.3545C131.334 15.2838 131.321 15.2195 131.302 15.1424C131.27 14.9176 131.077 14.6927 130.749 14.455C130.422 14.2173 130.017 14.0117 129.529 13.8318C129.04 13.6519 128.533 13.4912 127.993 13.3692C127.453 13.2471 126.952 13.1893 126.49 13.1893C125.719 13.1893 124.986 13.3113 124.273 13.5491C123.573 13.7996 122.95 14.1594 122.429 14.622C121.909 15.0846 121.491 15.6628 121.176 16.3375C120.874 17.0249 120.714 17.7959 120.714 18.6761C120.714 19.5435 120.874 20.3273 121.176 21.0019C121.491 21.683 121.909 22.2548 122.429 22.7302C122.95 23.1928 123.573 23.5526 124.273 23.7903C124.986 24.0409 125.719 24.1501 126.49 24.1501C127.074 24.1501 127.685 24.0794 128.334 23.9252C128.976 23.7774 129.567 23.5847 130.094 23.347C130.627 23.1093 131.064 22.8523 131.43 22.5567C131.79 22.2612 131.964 21.9785 131.964 21.7215C131.964 21.5737 131.931 21.4517 131.861 21.3489L132.246 21.1111L134.052 24.3428L133.833 24.5998ZM143.458 13.3756C142.757 13.3756 142.057 13.4977 141.37 13.7482C140.669 13.986 140.033 14.3329 139.481 14.8019C138.915 15.2517 138.466 15.817 138.112 16.4852C137.772 17.1663 137.592 17.918 137.592 18.7789C137.592 19.627 137.772 20.3916 138.112 21.0597C138.466 21.7408 138.915 22.2997 139.481 22.7559C140.033 23.2185 140.669 23.5719 141.37 23.8096C142.057 24.0601 142.757 24.1694 143.458 24.1694C144.145 24.1694 144.845 24.0537 145.546 23.8096C146.233 23.5719 146.869 23.2249 147.422 22.7559C147.987 22.3062 148.437 21.7408 148.79 21.0597C149.144 20.3916 149.311 19.627 149.311 18.7789C149.311 17.918 149.144 17.1663 148.79 16.4852C148.437 15.817 147.987 15.2517 147.422 14.8019C146.869 14.3393 146.233 13.986 145.546 13.7482C144.852 13.5041 144.152 13.3756 143.458 13.3756ZM143.458 10.5744C144.466 10.5744 145.494 10.7414 146.529 11.0819C147.582 11.4096 148.527 11.9172 149.388 12.5853C150.255 13.2535 150.956 14.108 151.514 15.1296C152.054 16.1576 152.337 17.3783 152.337 18.7789C152.337 20.1795 152.054 21.4003 151.514 22.4154C150.962 23.4434 150.262 24.2914 149.388 24.9661C148.527 25.6342 147.582 26.1161 146.529 26.4245C145.488 26.7265 144.46 26.8871 143.458 26.8871C142.443 26.8871 141.421 26.7265 140.374 26.4245C139.333 26.1225 138.376 25.6342 137.515 24.9661C136.654 24.285 135.947 23.4434 135.401 22.4154C134.848 21.4003 134.579 20.1795 134.579 18.7789C134.579 17.3783 134.848 16.1576 135.401 15.1296C135.941 14.1145 136.654 13.2535 137.515 12.5853C138.376 11.9172 139.333 11.4096 140.374 11.0819C141.427 10.7478 142.443 10.5744 143.458 10.5744ZM161.743 17.8987C162.411 17.8987 162.951 17.8409 163.394 17.7317C163.837 17.616 164.184 17.4618 164.448 17.2562C164.698 17.0506 164.891 16.8129 164.987 16.5431C165.103 16.2604 165.154 15.9648 165.154 15.6371C165.154 15.3095 165.097 15.0139 164.987 14.7312C164.885 14.4614 164.692 14.2237 164.448 14.0181C164.191 13.8125 163.837 13.6583 163.394 13.5426C162.951 13.427 162.411 13.3756 161.743 13.3756H156.988V17.8923H161.743V17.8987ZM162.45 10.7542C163.33 10.7542 164.133 10.8442 164.846 11.0112C165.559 11.1783 166.182 11.461 166.69 11.8336C167.21 12.2063 167.602 12.6946 167.879 13.2921C168.148 13.9024 168.283 14.6349 168.283 15.5087C168.283 16.8515 167.93 17.8794 167.223 18.5926C166.497 19.3058 165.54 19.7812 164.332 20.0253L167.994 25.8077C168.116 26.0133 168.264 26.1354 168.444 26.1804C168.611 26.2125 168.772 26.2382 168.919 26.2382V26.7907H163.78V26.2382C163.947 26.2382 164.082 26.2061 164.21 26.1482C164.332 26.0904 164.39 26.0005 164.39 25.8977C164.39 25.7949 164.358 25.6856 164.274 25.5443C164.204 25.4222 164.094 25.2423 163.947 25.011L160.92 20.2566H156.988V25.6792C156.988 25.872 157.046 26.0069 157.168 26.0968C157.284 26.1868 157.509 26.2318 157.811 26.2318V26.7843H153.056V26.2318C153.59 26.2318 153.86 26.0519 153.86 25.6792V11.8401C153.86 11.4803 153.59 11.3004 153.056 11.3004V10.7478H162.45V10.7542ZM37.8651 21.76L38.1349 21.9207C38.1349 22.1006 38.1799 22.2612 38.2505 22.409C38.3726 22.6595 38.636 22.8972 39.0087 23.1221C39.3813 23.3598 39.8118 23.5719 40.2937 23.7518C40.7819 23.9317 41.2895 24.0794 41.8163 24.1951C42.3496 24.3107 42.8315 24.3621 43.2491 24.3621C43.5639 24.3621 43.9623 24.33 44.457 24.285C44.9517 24.24 45.44 24.1244 45.9154 23.9702C46.3908 23.8032 46.8085 23.5719 47.1554 23.2892C47.4959 23.0065 47.6758 22.6338 47.6758 22.1584C47.6758 21.6958 47.5152 21.3424 47.1875 21.1304C46.8727 20.9055 46.4551 20.7449 45.9218 20.6357C45.4014 20.5457 44.8039 20.4751 44.1357 20.4429C43.4675 20.4108 42.7801 20.3659 42.0926 20.308C41.3923 20.2374 40.7113 20.141 40.0367 20.0061C39.3685 19.8583 38.7838 19.6206 38.2505 19.28C37.7301 18.9524 37.3125 18.4898 36.9848 17.9115C36.67 17.3333 36.5094 16.5752 36.5094 15.6436C36.5094 15.0139 36.6315 14.3907 36.9078 13.7804C37.1776 13.17 37.5888 12.6367 38.1285 12.1677C38.681 11.7051 39.3813 11.3196 40.2166 11.0241C41.0646 10.7285 42.0476 10.5808 43.1848 10.5808C44.155 10.5808 45.0031 10.6579 45.7162 10.8314C46.4294 10.992 47.0526 11.159 47.5666 11.3389C48.0999 11.5317 48.5239 11.6987 48.8901 11.8593C49.2499 12.0264 49.5455 12.1099 49.7832 12.1099C50.0402 12.1099 50.2265 12.0521 50.3357 11.93L50.6634 12.1677L48.768 15.9841L48.4982 15.862C48.4661 15.5793 48.3826 15.3416 48.2733 15.1617C48.1256 14.9111 47.8878 14.6734 47.5473 14.4357C47.2068 14.2108 46.8149 13.9924 46.3523 13.8125C45.8897 13.6326 45.4014 13.4848 44.8746 13.3692C44.3413 13.2535 43.8016 13.2021 43.2684 13.2021C42.87 13.2021 42.4524 13.2342 42.0284 13.3049C41.5979 13.382 41.206 13.4848 40.8526 13.6326C40.4992 13.7675 40.223 13.9603 39.9917 14.198C39.754 14.4228 39.6383 14.7184 39.6383 15.0653C39.6383 15.5536 39.7989 15.9134 40.1266 16.164C40.4414 16.4017 40.859 16.5945 41.3923 16.7037C41.9127 16.8258 42.5102 16.9093 43.1784 16.9542C43.8466 16.9992 44.5341 17.0442 45.2215 17.102C45.9218 17.1727 46.6029 17.2691 47.2775 17.4297C47.9457 17.5775 48.5303 17.828 49.0636 18.1621C49.584 18.4898 50.0016 18.9395 50.3293 19.5178C50.6441 20.0832 50.8047 20.8284 50.8047 21.7408C50.8047 22.7944 50.5542 23.6618 50.0466 24.33C49.5519 24.9982 48.9158 25.525 48.1705 25.9105C47.4124 26.296 46.6029 26.553 45.7291 26.6879C44.8617 26.8228 44.0458 26.8935 43.3005 26.8935C42.2468 26.8935 41.3795 26.8228 40.6663 26.6879C39.966 26.553 39.3813 26.3924 38.9123 26.1996C38.4369 26.0069 38.0642 25.8398 37.7944 25.6792C37.5245 25.5314 37.2868 25.4543 37.0812 25.4543C36.9463 25.4543 36.8307 25.5314 36.7214 25.6921L36.3359 25.4543L37.8651 21.76Z" fill="#4D4D4D"/>
<path d="M170.219 9.48862H170.411C170.694 9.48862 170.874 9.47578 170.945 9.4565C171.015 9.4308 171.06 9.39867 171.105 9.34085C171.137 9.28303 171.163 9.2252 171.163 9.16095C171.163 9.09028 171.137 9.03888 171.105 8.98106C171.073 8.92324 171.015 8.89111 170.938 8.86541C170.867 8.83971 170.7 8.83329 170.418 8.83329H170.225V9.48862H170.219ZM169.73 10.8443V8.44779H170.219C170.668 8.44779 170.932 8.46065 170.99 8.46065C171.15 8.4735 171.272 8.50562 171.362 8.55059C171.452 8.60842 171.523 8.68551 171.587 8.78831C171.645 8.89111 171.677 9.00033 171.677 9.12883C171.677 9.29587 171.619 9.44365 171.51 9.57215C171.394 9.69422 171.24 9.77774 171.034 9.80986C171.105 9.83556 171.157 9.86769 171.195 9.88697C171.24 9.91909 171.298 9.98977 171.362 10.0797C171.375 10.1054 171.439 10.1954 171.529 10.3753L171.812 10.8507H171.214L171.022 10.4652C170.874 10.2082 170.771 10.0347 170.681 9.97048C170.591 9.89981 170.476 9.86769 170.341 9.86769H170.219V10.8507H169.73V10.8443ZM170.745 7.83101C170.443 7.83101 170.135 7.90811 169.852 8.05588C169.57 8.2165 169.345 8.44137 169.184 8.73691C169.017 9.01961 168.934 9.32158 168.934 9.64282C168.934 9.95764 169.011 10.266 169.171 10.5551C169.332 10.8378 169.557 11.0627 169.839 11.2233C170.135 11.384 170.424 11.4611 170.745 11.4611C171.06 11.4611 171.369 11.384 171.651 11.2233C171.947 11.0627 172.159 10.8378 172.332 10.5551C172.493 10.2596 172.57 9.95764 172.57 9.64282C172.57 9.328 172.493 9.01961 172.319 8.73691C172.159 8.44137 171.934 8.2165 171.638 8.05588C171.356 7.90811 171.06 7.83101 170.745 7.83101ZM170.745 7.3877C171.131 7.3877 171.503 7.47764 171.863 7.67039C172.217 7.86314 172.493 8.14582 172.699 8.50562C172.904 8.86541 173.001 9.25091 173.001 9.6364C173.001 10.0347 172.898 10.4074 172.699 10.7672C172.506 11.127 172.223 11.3968 171.876 11.6024C171.516 11.7952 171.144 11.8979 170.745 11.8979C170.347 11.8979 169.974 11.7952 169.615 11.6024C169.261 11.3968 168.985 11.127 168.792 10.7672C168.587 10.4074 168.49 10.0347 168.49 9.6364C168.49 9.25091 168.593 8.86541 168.792 8.50562C168.998 8.14582 169.281 7.86314 169.627 7.67039C169.987 7.47764 170.36 7.3877 170.745 7.3877Z" fill="#4D4D4D"/>
<path d="M50.1552 38.6768H55.2758V37.6039H51.3566V35.7728H54.7939V34.6998H51.3566V32.9137H55.2179V31.8408H50.1552V38.6768ZM56.7021 38.6768H61.495V37.5781H57.9035V31.8408H56.7085V38.6768H56.7021ZM62.7415 38.6768H67.8621V37.6039H63.9429V35.7728H67.3674V34.6998H63.9429V32.9137H67.8043V31.8408H62.7415V38.6768ZM72.5265 38.7989C73.7344 38.7989 74.6981 38.3042 75.3727 37.7259V34.854H72.4687V35.9077H74.2098V37.1862C73.7922 37.5011 73.2011 37.7067 72.5586 37.7067C71.1709 37.7067 70.2393 36.6658 70.2393 35.2652V35.2395C70.2393 33.9288 71.1902 32.8302 72.4559 32.8302C73.3232 32.8302 73.8372 33.1129 74.364 33.5562L75.1222 32.6503C74.4219 32.0528 73.6894 31.7251 72.5008 31.7251C70.4449 31.7251 68.9736 33.3377 68.9736 35.2588V35.2716C68.98 37.2762 70.3935 38.7989 72.5265 38.7989ZM76.3493 38.6768H77.5829L78.2961 37.0256H81.5213L82.2088 38.6768H83.4745L80.4677 31.7958H79.3626L76.3493 38.6768ZM78.7201 35.9655L79.8959 33.2285L81.0845 35.9655H78.7201ZM84.6502 38.6768H85.8389V33.8196L89.6038 38.6768H90.6125V31.8408H89.4368V36.5759L85.7746 31.8408H84.6567V38.6768H84.6502ZM94.0434 38.6768H95.2513V32.9587H97.4229V31.8408H91.8847V32.9587H94.0434V38.6768ZM101.618 38.6768H106.411V37.5781H102.82V31.8408H101.625V38.6768H101.618ZM107.079 38.6768H108.313L109.013 37.0256H112.245L112.933 38.6768H114.211L111.204 31.7958H110.086L107.079 38.6768ZM109.45 35.9655L110.626 33.2285L111.802 35.9655H109.45ZM115.38 38.6768H116.556V33.7939L118.689 36.9999H118.734L120.893 33.7682V38.6704H122.088V31.8343H120.809L118.728 35.066L116.646 31.8343H115.368V38.6768H115.38ZM123.925 38.6768H125.12V31.8408H123.925V38.6768ZM126.952 38.6768H128.127V33.8196L131.899 38.6768H132.907V31.8408H131.719V36.5759L128.057 31.8408H126.952V38.6768ZM134.07 38.6768H135.304L136.004 37.0256H139.236L139.936 38.6768H141.202L138.195 31.7958H137.09L134.07 38.6768ZM136.441 35.9655L137.617 33.2285L138.805 35.9655H136.441ZM143.174 38.6768H144.382V32.9587H146.554V31.8408H141.009V32.9587H143.181V38.6768H143.174ZM147.82 38.6768H152.94V37.6039H149.021V35.7728H152.458V34.6998H149.021V32.9137H152.895V31.8408H147.82V38.6768ZM156.757 38.7796C158.189 38.7796 159.198 38.0086 159.198 36.7365V36.7236C159.198 35.58 158.44 35.0596 156.994 34.7127C155.696 34.4107 155.382 34.173 155.382 33.6397V33.6269C155.382 33.1771 155.786 32.8109 156.487 32.8109C157.116 32.8109 157.727 33.0486 158.35 33.5112L158.992 32.6053C158.292 32.0399 157.502 31.7444 156.506 31.7444C155.15 31.7444 154.18 32.5475 154.18 33.7232V33.7489C154.18 35.0018 154.996 35.4322 156.448 35.7856C157.714 36.0812 157.996 36.351 157.996 36.8393V36.865C157.996 37.3726 157.521 37.7259 156.776 37.7259C155.928 37.7259 155.272 37.3983 154.617 36.8329L153.891 37.6938C154.726 38.4134 155.709 38.7796 156.757 38.7796Z" fill="#4D4D4D"/>
</svg>
